<?xml version="1.0" standalone="no"?>
<!DOCTYPE svg PUBLIC "-//W3C//DTD SVG 1.1//EN" "http://www.w3.org/Graphics/SVG/1.1/DTD/svg11.dtd" >
<svg xmlns="http://www.w3.org/2000/svg" xmlns:xlink="http://www.w3.org/1999/xlink" version="1.1" viewBox="-10 0 1602 2048">
  <g transform="matrix(1 0 0 -1 0 1638)">
   <path fill="currentColor"
d="M80 1195l239 239h159l239 -239v-159l-239 -239h-159v-160h159l239 -239v-159l-239 -239h-159l-239 239h398v159h-159l-239 239v160l239 239h159v159h-398zM1514 1195l-239 239h-159l-239 -239v-159l239 -239h159v-160h-159l-239 -239v-159l239 -239h159l239 239h-398v159
h159l239 239v160l-239 239h-159v159h398z" />
  </g>

</svg>
