<?xml version="1.0" standalone="no"?>
<!DOCTYPE svg PUBLIC "-//W3C//DTD SVG 1.1//EN" "http://www.w3.org/Graphics/SVG/1.1/DTD/svg11.dtd" >
<svg xmlns="http://www.w3.org/2000/svg" xmlns:xlink="http://www.w3.org/1999/xlink" version="1.1" viewBox="-10 0 1602 2048">
  <g transform="matrix(1 0 0 -1 0 1638)">
   <path fill="currentColor"
d="M80 1036h239v-638h-239v638zM1275 1036h239v-638h-239v638zM80 1195l239 239h159l239 -239v-159h160v159l239 239h159l239 -239h-398v-159l-239 -239h-160l-239 239v159h-398zM478 239v159l239 239h160l239 -239v-159h398l-239 -239h-159l-239 239v159h-160v-159 l-239 -239h-159l-239 239h398z" />
  </g>

</svg>
