<?xml version="1.0" standalone="no"?>
<!DOCTYPE svg PUBLIC "-//W3C//DTD SVG 1.1//EN" "http://www.w3.org/Graphics/SVG/1.1/DTD/svg11.dtd" >
<svg xmlns="http://www.w3.org/2000/svg" xmlns:xlink="http://www.w3.org/1999/xlink" version="1.1">
<metadata>
Created by FontForge 20190801 at Fri Mar 17 14:23:13 2017
 By Tyler Perata
Font by Sarinilli* 2012-2017 - BotW Sheikah Alphabet by Nintendo
</metadata>
<defs>
<font id="BotWSheikahRegular" horiz-adv-x="1592" >
  <font-face 
    font-family="BotW Sheikah"
    font-weight="400"
    font-stretch="normal"
    units-per-em="2048"
    panose-1="2 0 0 0 0 0 0 0 0 0"
    ascent="1638"
    descent="-410"
    x-height="1434"
    cap-height="1434"
    bbox="80 -2 1514 1434"
    underline-thickness="150"
    underline-position="-292"
    unicode-range="U+0009-007E"
  />
<missing-glyph 
 />
    <glyph glyph-name=".notdef" 
 />
    <glyph glyph-name=".notdef" 
 />
    <glyph glyph-name="space" unicode="&#x9;" 
 />
    <glyph glyph-name="space" unicode="&#xa0;" 
 />
    <glyph glyph-name="space" unicode=" " 
 />
    <glyph glyph-name="exclam" unicode="!" 
d="M319 0l-239 239v956l239 239h359l239 -239v-956h358v1195l239 -239v-956l-239 -239h-358l-239 239v956h-359v-1195z" />
    <glyph glyph-name="hyphen" unicode="-" 
d="M80 1434h239v-239h-239v239zM1275 239h239v-239h-239v239zM677 1434v-239h598v-358h-956l-239 -239v-359l239 -239h598v239h-598v359h956l239 239v358l-239 239h-598z" />
    <glyph glyph-name="hyphen" unicode="&#xad;" 
d="M80 1434h239v-239h-239v239zM1275 239h239v-239h-239v239zM677 1434v-239h598v-358h-956l-239 -239v-359l239 -239h598v239h-598v359h956l239 239v358l-239 239h-598z" />
    <glyph glyph-name="period" unicode="." 
d="M1514 0v1195l-239 239h-956l-239 -239v-956l239 -239h359l239 239v598h-239v-598h-359v956h956v-1195h239z" />
    <glyph glyph-name="zero" unicode="0" 
d="M678 837h239v-239h-239v239zM80 1195l239 239h598v-239h-598v-1195l-239 239v956zM1275 1434l239 -239v-956l-239 -239h-597v239h597v1195z" />
    <glyph glyph-name="one" unicode="1" 
d="M80 1434h239v-239h-239v239zM1275 239h-1195l239 -239h956l239 239v956l-239 239v-1195zM678 1434v-597h-598v-239h598l239 239v597h-239z" />
    <glyph glyph-name="two" unicode="2" 
d="M319 1434l-239 -239v-358l239 -239h956l239 239v358l-239 239v-597h-956v597zM1514 239l-239 -239h-956l-239 239h1434zM678 1434h239v-239h-239v239z" />
    <glyph glyph-name="three" unicode="3" 
d="M1514 1434v-239h-239v239h239zM319 239v1195l-239 -239v-956l239 -239h956l239 239h-1195zM1514 837h-597v597h-239v-597l239 -239h597v239z" />
    <glyph glyph-name="four" unicode="4" 
d="M80 239l239 -239h359l239 239v956l-239 239h-359l-239 -239h598v-956h-598zM1275 1434l239 -239v-956l-239 -239v1434zM80 598v239h239v-239h-239z" />
    <glyph glyph-name="five" unicode="5" 
d="M917 598v239h-239v-239h239zM1275 0l239 239v598h-239v-598h-1195l239 -239h956zM1514 1195l-239 239h-956l-239 -239v-597h239v597h1195z" />
    <glyph glyph-name="six" unicode="6" 
d="M1514 1195l-239 239h-358l-239 -239v-956l239 -239h358l239 239h-597v956h597zM319 0l-239 239v956l239 239v-1434zM1514 837v-239h-239v239h239z" />
    <glyph glyph-name="seven" unicode="7" 
d="M80 0v239h239v-239h-239zM1275 1195v-1195l239 239v956l-239 239h-956l-239 -239h1195zM80 598h598v-598h239v598l-239 239h-598v-239z" />
    <glyph glyph-name="eight" unicode="8" 
d="M1275 0l239 239v359l-239 239h-956l-239 -239v-359l239 -239v598h956v-598zM80 1195l239 239h956l239 -239h-1434zM917 0h-239v239h239v-239z" />
    <glyph glyph-name="nine" unicode="9" 
d="M1514 0h-239v239h239v-239zM319 1195h1195l-239 239h-956l-239 -239v-956l239 -239v1195zM917 0v598h597v239h-597l-239 -239v-598h239z" />
    <glyph glyph-name="A" unicode="A" 
d="M80 1195l239 239v-1195h956v956h-558v-558h399v-239h-399l-239 239v558l239 239h558l239 -239v-956l-239 -239h-956l-239 239v956zM877 1036h239v-239h-239v239z" />
    <glyph glyph-name="B" unicode="B" 
d="M80 1434h239v-239h-239v239zM1275 1434h239v-239h-239v239zM478 1434h239v-398l-239 -239h-398v239h398v398zM877 1434h239v-398h398v-239h-398l-239 239v398zM319 0l-239 239v159l239 239h956l239 -239v-159l-239 -239v398h-956v-398zM478 239h638v-239h-638v239z" />
    <glyph glyph-name="C" unicode="C" 
d="M80 1195l239 239h159l239 -239v-159l-239 -239h-159v-160h159l239 -239v-159l-239 -239h-159l-239 239h398v159h-159l-239 239v160l239 239h159v159h-398zM1514 1195l-239 239h-159l-239 -239v-159l239 -239h159v-160h-159l-239 -239v-159l239 -239h159l239 239h-398v159
h159l239 239v160l-239 239h-159v159h398z" />
    <glyph glyph-name="D" unicode="D" 
d="M80 1195l239 239h956l239 -239v-956l-239 -239v1195h-1195zM80 1036h797l239 -239v-558l-239 -239h-558l-239 239h797v558h-797v239zM80 637h637v-239h-637v239z" />
    <glyph glyph-name="E" unicode="E" 
d="M80 1434h239v-239h-239v239zM1275 1434h239v-239h-239v239zM478 1195l239 239h160l239 -239v-398h-239v398h-160v-398h-239v398zM80 1036h239v-399h159l239 -239v-159l-239 -239h-159l-239 239h398v159h-159l-239 239v399zM1514 1036h-239v-399h-159l-239 -239v-159
l239 -239h159l239 239h-398v159h159l239 239v399z" />
    <glyph glyph-name="F" unicode="F" 
d="M80 1195l239 239h956l239 -239v-398h-239v398h-956v-398h-239v398zM80 637h239v-398h159v558l239 239h160l239 -239v-558h159v398h239v-398l-239 -239h-159l-239 239v558h-160v-558l-239 -239h-159l-239 239v398z" />
    <glyph glyph-name="G" unicode="G" 
d="M80 1195l239 239h956l239 -239v-956l-239 -239v1195h-956v-558h159v160l239 239h160l239 -239v-558l-239 -239h-558l-239 239h797v558h-160v-160l-239 -239h-159l-239 239v558z" />
    <glyph glyph-name="H" unicode="H" 
d="M80 1434h239v-239h-239v239zM478 1434h239v-239h-239v239zM877 1434h239v-239h-239v239zM1275 1434h239v-239h-239v239zM319 0l-239 239v558l239 239h956l239 -239v-558l-239 -239v797h-956v-797zM478 0v398l239 239h160l239 -239v-398h-239v398h-160v-398h-239z" />
    <glyph glyph-name="I" unicode="I" 
d="M80 637h239v-239h-239v239zM80 239h239v-239h-239v239zM1275 637h239v-239h-239v239zM1275 239h239v-239h-239v239zM80 797v398l239 239h159l239 -239v-956h160v956l239 239h159l239 -239v-398h-239v398h-159v-956l-239 -239h-160l-239 239v956h-159v-398h-239z" />
    <glyph glyph-name="J" unicode="J" 
d="M80 1195l239 239v-398h159v159l239 239h558l239 -239v-956l-239 -239v1195h-558v-159l-239 -239h-159l-239 239v159zM877 1036h239v-797l-239 -239h-558l-239 239h797v797zM80 637h239v-239h-239v239zM478 637h239v-239h-239v239z" />
    <glyph glyph-name="K" unicode="K" 
d="M319 0l-239 239v956l239 239v-1434zM1275 1434l239 -239v-956l-239 -239v1434zM478 1434h239v-637h-239v637zM478 637h239v-637h-239v637zM877 637h239v-637h-239v637zM877 797h239v637h-239v-637z" />
    <glyph glyph-name="L" unicode="L" 
d="M80 1195l239 239v-797h159v558l239 239h558l239 -239h-797v-558l-239 -239h-159l-239 239v558zM877 1036h637v-239h-637v239zM877 637h637v-239h-637v239zM80 239l239 -239h956l239 239h-1434z" />
    <glyph glyph-name="M" unicode="M" 
d="M80 1195l239 239h956l239 -239h-1434zM1514 239l-239 -239h-956l-239 239h1434zM80 398h239v239h-239v-239zM478 398h239v399l-239 239h-398v-239h398v-399zM877 398v399l239 239h398v-239h-398v-399h-239zM1275 637h239v-239h-239v239z" />
    <glyph glyph-name="N" unicode="N" 
d="M80 1195l239 239h159l239 -239v-159l-239 -239h-398v239h398v159h-398zM877 1434v-797h-558l-239 -239v-159l239 -239h956l239 239v956l-239 239v-1195h-956v159h558l239 239v797h-239z" />
    <glyph glyph-name="O" unicode="O" 
d="M478 1434h239v-239h-239v239zM877 1434h239v-239h-239v239zM80 637h239v-637l-239 239v398zM1275 637h239v-398l-239 -239v637zM319 1036h159l239 -239v-558h160v558l239 239h159v398l239 -239v-159l-239 -239h-159v-558l-239 -239h-160l-239 239v558h-159l-239 239v159
l239 239v-398z" />
    <glyph glyph-name="P" unicode="P" 
d="M478 1434h638v-239h-638v239zM478 1036h638v-239h-638v239zM478 637h638v-239h-638v239zM319 239h956v1195l239 -239v-956l-239 -239h-956l-239 239v956l239 239v-1195z" />
    <glyph glyph-name="Q" unicode="Q" 
d="M80 1434h239v-239h-239v239zM478 1434h239v-239h-239v239zM478 637h239v-637h-239v637zM877 637h239v-637h-239v637zM319 0l-239 239v558l239 239h558v398h239v-398l-239 -239h-558v-797zM1275 1434l239 -239v-956l-239 -239v1434z" />
    <glyph glyph-name="R" unicode="R" 
d="M80 239h239v-239h-239v239zM1275 239h239v-239h-239v239zM80 797v398l239 239h159l239 -239v-159h160v159l239 239h159l239 -239v-398h-239v398h-159v-159l-239 -239h-160l-239 239v159h-159v-398h-239zM80 637h398l239 -239v-159h160v159l239 239h398v-239h-398v-159
l-239 -239h-160l-239 239v159h-398v239z" />
    <glyph glyph-name="S" unicode="S" 
d="M478 1036h638v-239h-638v239zM478 637h638v-239h-638v239zM717 1434v-239h-398v-956h398v-239h-398l-239 239v956l239 239h398zM877 1434v-239h398v-956h-398v-239h398l239 239v956l-239 239h-398z" />
    <glyph glyph-name="T" unicode="T" 
d="M478 1434h638v-239h-638v239zM1514 239l-239 -239h-956l-239 239h1434zM80 1195l239 239v-797h159v160l239 239h160l239 -239v-160h159v797l239 -239v-558l-239 -239h-159l-239 239v160h-160v-160l-239 -239h-159l-239 239v558z" />
    <glyph glyph-name="U" unicode="U" 
d="M1514 239l-239 -239h-956l-239 239h1434zM478 1036h239v-239h-239v239zM877 1036h239v-239h-239v239zM1275 398h239v797l-239 239v-1036zM1116 1434v-239h-797v-558h797v-239h-797l-239 239v558l239 239h797z" />
    <glyph glyph-name="V" unicode="V" 
d="M80 1195l239 239h956l239 -239v-159l-239 -239h-558v-797h-239v797l239 239h558v159h-956v-1195l-239 239v956zM877 637h239v-637h-239v637zM1275 637h239v-398l-239 -239v637z" />
    <glyph glyph-name="W" unicode="W" 
d="M478 1195v-558l239 -239h160l239 239v558h398l-239 239h-159l-239 -239v-558h-160v558l-239 239h-159l-239 -239h398zM80 1036h239v-797h956v797h239v-797l-239 -239h-956l-239 239v797z" />
    <glyph glyph-name="X" unicode="X" 
d="M80 1036h239v-638h-239v638zM1275 1036h239v-638h-239v638zM80 1195l239 239h159l239 -239v-159h160v159l239 239h159l239 -239h-398v-159l-239 -239h-160l-239 239v159h-398zM478 239v159l239 239h160l239 -239v-159h398l-239 -239h-159l-239 239v159h-160v-159
l-239 -239h-159l-239 239h398z" />
    <glyph glyph-name="Y" unicode="Y" 
d="M80 239l239 -239v1036h-239v-797zM478 1195v-1195h239v1195l-239 239h-159l-239 -239h398zM1275 1434l239 -239v-797h-239v1036zM877 1434h239v-1195h398l-239 -239h-159l-239 239v1195z" />
    <glyph glyph-name="Z" unicode="Z" 
d="M80 1195l239 239h956l239 -239v-558l-239 -239h-159l-239 239v399h239v-399h159v558h-1195zM319 239v558h159v-399h239v399l-239 239h-159l-239 -239v-558l239 -239h956l239 239h-1195z" />
    <glyph glyph-name="a" unicode="a" 
d="M80 1195l239 239v-1195h956v956h-558v-558h399v-239h-399l-239 239v558l239 239h558l239 -239v-956l-239 -239h-956l-239 239v956zM877 1036h239v-239h-239v239z" />
    <glyph glyph-name="b" unicode="b" 
d="M80 1434h239v-239h-239v239zM1275 1434h239v-239h-239v239zM478 1434h239v-398l-239 -239h-398v239h398v398zM877 1434h239v-398h398v-239h-398l-239 239v398zM319 0l-239 239v159l239 239h956l239 -239v-159l-239 -239v398h-956v-398zM478 239h638v-239h-638v239z" />
    <glyph glyph-name="c" unicode="c" 
d="M80 1195l239 239h159l239 -239v-159l-239 -239h-159v-160h159l239 -239v-159l-239 -239h-159l-239 239h398v159h-159l-239 239v160l239 239h159v159h-398zM1514 1195l-239 239h-159l-239 -239v-159l239 -239h159v-160h-159l-239 -239v-159l239 -239h159l239 239h-398v159
h159l239 239v160l-239 239h-159v159h398z" />
    <glyph glyph-name="d" unicode="d" 
d="M80 1195l239 239h956l239 -239v-956l-239 -239v1195h-1195zM80 1036h797l239 -239v-558l-239 -239h-558l-239 239h797v558h-797v239zM80 637h637v-239h-637v239z" />
    <glyph glyph-name="e" unicode="e" 
d="M80 1434h239v-239h-239v239zM1275 1434h239v-239h-239v239zM478 1195l239 239h160l239 -239v-398h-239v398h-160v-398h-239v398zM80 1036h239v-399h159l239 -239v-159l-239 -239h-159l-239 239h398v159h-159l-239 239v399zM1514 1036h-239v-399h-159l-239 -239v-159
l239 -239h159l239 239h-398v159h159l239 239v399z" />
    <glyph glyph-name="f" unicode="f" 
d="M80 1195l239 239h956l239 -239v-398h-239v398h-956v-398h-239v398zM80 637h239v-398h159v558l239 239h160l239 -239v-558h159v398h239v-398l-239 -239h-159l-239 239v558h-160v-558l-239 -239h-159l-239 239v398z" />
    <glyph glyph-name="g" unicode="g" 
d="M80 1195l239 239h956l239 -239v-956l-239 -239v1195h-956v-558h159v160l239 239h160l239 -239v-558l-239 -239h-558l-239 239h797v558h-160v-160l-239 -239h-159l-239 239v558z" />
    <glyph glyph-name="h" unicode="h" 
d="M80 1434h239v-239h-239v239zM478 1434h239v-239h-239v239zM877 1434h239v-239h-239v239zM1275 1434h239v-239h-239v239zM319 0l-239 239v558l239 239h956l239 -239v-558l-239 -239v797h-956v-797zM478 0v398l239 239h160l239 -239v-398h-239v398h-160v-398h-239z" />
    <glyph glyph-name="i" unicode="i" 
d="M80 637h239v-239h-239v239zM80 239h239v-239h-239v239zM1275 637h239v-239h-239v239zM1275 239h239v-239h-239v239zM80 797v398l239 239h159l239 -239v-956h160v956l239 239h159l239 -239v-398h-239v398h-159v-956l-239 -239h-160l-239 239v956h-159v-398h-239z" />
    <glyph glyph-name="j" unicode="j" 
d="M80 1195l239 239v-398h159v159l239 239h558l239 -239v-956l-239 -239v1195h-558v-159l-239 -239h-159l-239 239v159zM877 1036h239v-797l-239 -239h-558l-239 239h797v797zM80 637h239v-239h-239v239zM478 637h239v-239h-239v239z" />
    <glyph glyph-name="k" unicode="k" 
d="M319 0l-239 239v956l239 239v-1434zM1275 1434l239 -239v-956l-239 -239v1434zM478 1434h239v-637h-239v637zM478 637h239v-637h-239v637zM877 637h239v-637h-239v637zM877 797h239v637h-239v-637z" />
    <glyph glyph-name="l" unicode="l" 
d="M80 1195l239 239v-797h159v558l239 239h558l239 -239h-797v-558l-239 -239h-159l-239 239v558zM877 1036h637v-239h-637v239zM877 637h637v-239h-637v239zM80 239l239 -239h956l239 239h-1434z" />
    <glyph glyph-name="m" unicode="m" 
d="M80 1195l239 239h956l239 -239h-1434zM1514 239l-239 -239h-956l-239 239h1434zM80 398h239v239h-239v-239zM478 398h239v399l-239 239h-398v-239h398v-399zM877 398v399l239 239h398v-239h-398v-399h-239zM1275 637h239v-239h-239v239z" />
    <glyph glyph-name="n" unicode="n" 
d="M80 1195l239 239h159l239 -239v-159l-239 -239h-398v239h398v159h-398zM877 1434v-797h-558l-239 -239v-159l239 -239h956l239 239v956l-239 239v-1195h-956v159h558l239 239v797h-239z" />
    <glyph glyph-name="o" unicode="o" 
d="M478 1434h239v-239h-239v239zM877 1434h239v-239h-239v239zM80 637h239v-637l-239 239v398zM1275 637h239v-398l-239 -239v637zM319 1036h159l239 -239v-558h160v558l239 239h159v398l239 -239v-159l-239 -239h-159v-558l-239 -239h-160l-239 239v558h-159l-239 239v159
l239 239v-398z" />
    <glyph glyph-name="p" unicode="p" 
d="M478 1434h638v-239h-638v239zM478 1036h638v-239h-638v239zM478 637h638v-239h-638v239zM319 239h956v1195l239 -239v-956l-239 -239h-956l-239 239v956l239 239v-1195z" />
    <glyph glyph-name="q" unicode="q" 
d="M80 1434h239v-239h-239v239zM478 1434h239v-239h-239v239zM478 637h239v-637h-239v637zM877 637h239v-637h-239v637zM319 0l-239 239v558l239 239h558v398h239v-398l-239 -239h-558v-797zM1275 1434l239 -239v-956l-239 -239v1434z" />
    <glyph glyph-name="r" unicode="r" 
d="M80 239h239v-239h-239v239zM1275 239h239v-239h-239v239zM80 797v398l239 239h159l239 -239v-159h160v159l239 239h159l239 -239v-398h-239v398h-159v-159l-239 -239h-160l-239 239v159h-159v-398h-239zM80 637h398l239 -239v-159h160v159l239 239h398v-239h-398v-159
l-239 -239h-160l-239 239v159h-398v239z" />
    <glyph glyph-name="s" unicode="s" 
d="M478 1036h638v-239h-638v239zM478 637h638v-239h-638v239zM717 1434v-239h-398v-956h398v-239h-398l-239 239v956l239 239h398zM877 1434v-239h398v-956h-398v-239h398l239 239v956l-239 239h-398z" />
    <glyph glyph-name="t" unicode="t" 
d="M478 1434h638v-239h-638v239zM1514 239l-239 -239h-956l-239 239h1434zM80 1195l239 239v-797h159v160l239 239h160l239 -239v-160h159v797l239 -239v-558l-239 -239h-159l-239 239v160h-160v-160l-239 -239h-159l-239 239v558z" />
    <glyph glyph-name="u" unicode="u" 
d="M1514 239l-239 -239h-956l-239 239h1434zM478 1036h239v-239h-239v239zM877 1036h239v-239h-239v239zM1275 398h239v797l-239 239v-1036zM1116 1434v-239h-797v-558h797v-239h-797l-239 239v558l239 239h797z" />
    <glyph glyph-name="v" unicode="v" 
d="M80 1195l239 239h956l239 -239v-159l-239 -239h-558v-797h-239v797l239 239h558v159h-956v-1195l-239 239v956zM877 637h239v-637h-239v637zM1275 637h239v-398l-239 -239v637z" />
    <glyph glyph-name="w" unicode="w" 
d="M478 1195v-558l239 -239h160l239 239v558h398l-239 239h-159l-239 -239v-558h-160v558l-239 239h-159l-239 -239h398zM80 1036h239v-797h956v797h239v-797l-239 -239h-956l-239 239v797z" />
    <glyph glyph-name="x" unicode="x" 
d="M80 1036h239v-638h-239v638zM1275 1036h239v-638h-239v638zM80 1195l239 239h159l239 -239v-159h160v159l239 239h159l239 -239h-398v-159l-239 -239h-160l-239 239v159h-398zM478 239v159l239 239h160l239 -239v-159h398l-239 -239h-159l-239 239v159h-160v-159
l-239 -239h-159l-239 239h398z" />
    <glyph glyph-name="y" unicode="y" 
d="M80 239l239 -239v1036h-239v-797zM478 1195v-1195h239v1195l-239 239h-159l-239 -239h398zM1275 1434l239 -239v-797h-239v1036zM877 1434h239v-1195h398l-239 -239h-159l-239 239v1195z" />
    <glyph glyph-name="z" unicode="z" 
d="M80 1195l239 239h956l239 -239v-558l-239 -239h-159l-239 239v399h239v-399h159v558h-1195zM319 239v558h159v-399h239v399l-239 239h-159l-239 -239v-558l239 -239h956l239 239h-1195z" />
    <glyph glyph-name="bar" unicode="|" 
d="M678 1434h239v-1434h-239v1434z" />
    <glyph glyph-name="questionmark" unicode="?" 
d="M80 1433h239v-239h-239v239zM97 837h239v-239h-239v239zM80 239l239 -239h358l239 239v955h597l-239 239h-358l-239 -239v-955h-597zM1274 835h239v-239h-239v239zM1274 239h239v-239h-239v239z" />
    <glyph glyph-name="Sheikah Symbol 1" unicode="~" 
d="M381 949l191 139l-283 206zM1306 1291l-287 -203l192 -138zM1266.5 811q-37.5 -6 -70.5 33q-122 159 -257.5 192t-280.5 -1t-264 -185q-30 -40 -65.5 -35.5t-30.5 60.5q-61 -37 -33 -93q57 -65 132 -27q151 -155 355 -180q1 -109 -43 -223q-29 -72 -44 -145
q-12 -73 20.5 -140.5t111.5 -67.5h3q72 2 105.5 67.5t23.5 141.5q-14 75 -43 145q-46 111 -45 221q203 26 358 181q75 -37 131 25q25 67 -35 101q9 -64 -28.5 -70zM669 971q-66 -51 -69 -147q0 -99 89 -160q-145 44 -233 145q71 121 213 162zM916 665q77 61 78 156
q0 95 -66 149q130 -33 208 -160q-92 -106 -220 -145zM416 1050l-37 109l94 -67zM681 1104h233l-117 330zM1120 1092l93 67l-37 -110zM762 1164l35 110l36 -110h-71zM679 824q0 50 36.5 87t85.5 37q47 0 79.5 -35t32.5 -87q0 -53 -34.5 -89t-82.5 -36q-47 0 -82 36.5
t-35 86.5z" />
    <glyph glyph-name="Sheikah Symbol 1" unicode="`" horiz-adv-x="1594" 
d="M341 797l435 263l441 -261l-436 -263zM785 453l574 347l-580 344l-574 -347zM520 794l262 158l265 -156l-262 -158zM660 1223l115 201l115 -201h-230zM1011 1130l193 116l3 -225zM352 1016l-2 226l195 -111zM710 119l73 335l72 -335q14 -119 -72 -121q-90 1 -73 121z" />
  </font>
</defs>
</svg>
