<svg xmlns="http://www.w3.org/2000/svg" xmlns:xlink="http://www.w3.org/1999/xlink" version="1.1" width="23000" height="1000" viewBox="0 0 23000 1000" xml:space="preserve">
<desc>Created with Fabric.js 3.5.0</desc>
<defs>
</defs>
<rect x="0" y="0" width="100%" height="100%" fill="#ffffff"/>
<g transform="matrix(0.0019 0 0 -0.0019 764.5772 531.0429)" id="628860">
<path style="stroke: none; stroke-width: 0; stroke-dasharray: none; stroke-linecap: butt; stroke-dashoffset: 0; stroke-linejoin: miter; stroke-miterlimit: 4; is-custom-font: none; font-file-url: none; fill: rgb(0,0,0); fill-rule: nonzero; opacity: 1;" vector-effect="non-scaling-stroke" transform=" translate(-797, -717)" d="M 80 1195 l 239 239 h 159 l 239 -239 v -159 l -239 -239 h -398 v 239 h 398 v 159 h -398 z M 877 1434 v -797 h -558 l -239 -239 v -159 l 239 -239 h 956 l 239 239 v 956 l -239 239 v -1195 h -956 v 159 h 558 l 239 239 v 797 h -239 z" stroke-linecap="round"/>
</g>
<g transform="matrix(0.0019 0 0 -0.0019 764.5772 531.0429)" id="365271">
<path style="stroke: none; stroke-width: 0; stroke-dasharray: none; stroke-linecap: butt; stroke-dashoffset: 0; stroke-linejoin: miter; stroke-miterlimit: 4; is-custom-font: none; font-file-url: none; fill: rgb(0,0,0); fill-rule: nonzero; opacity: 1;" vector-effect="non-scaling-stroke" transform=" translate(-797, -717)" d="M 80 1195 l 239 239 h 956 l 239 -239 h -1434 z M 1514 239 l -239 -239 h -956 l -239 239 h 1434 z M 80 398 h 239 v 239 h -239 v -239 z M 478 398 h 239 v 399 l -239 239 h -398 v -239 h 398 v -399 z M 877 398 v 399 l 239 239 h 398 v -239 h -398 v -399 h -239 z M 1275 637 h 239 v -239 h -239 v 239 z" stroke-linecap="round"/>
</g>
<g transform="matrix(0.0019 0 0 -0.0019 764.5772 531.0429)" id="990348">
<path style="stroke: none; stroke-width: 0; stroke-dasharray: none; stroke-linecap: butt; stroke-dashoffset: 0; stroke-linejoin: miter; stroke-miterlimit: 4; is-custom-font: none; font-file-url: none; fill: rgb(0,0,0); fill-rule: nonzero; opacity: 1;" vector-effect="non-scaling-stroke" transform=" translate(-797, -717)" d="M 80 1195 l 239 239 v -797 h 159 v 558 l 239 239 h 558 l 239 -239 h -797 v -558 l -239 -239 h -159 l -239 239 v 558 z M 877 1036 h 637 v -239 h -637 v 239 z M 877 637 h 637 v -239 h -637 v 239 z M 80 239 l 239 -239 h 956 l 239 239 h -1434 z" stroke-linecap="round"/>
</g>
<g transform="matrix(0.0019 0 0 -0.0019 764.5772 531.0429)" id="893246">
<path style="stroke: none; stroke-width: 0; stroke-dasharray: none; stroke-linecap: butt; stroke-dashoffset: 0; stroke-linejoin: miter; stroke-miterlimit: 4; is-custom-font: none; font-file-url: none; fill: rgb(0,0,0); fill-rule: nonzero; opacity: 1;" vector-effect="non-scaling-stroke" transform=" translate(-797, -717)" d="M 319 0 l -239 239 v 956 l 239 239 v -1434 z M 1275 1434 l 239 -239 v -956 l -239 -239 v 1434 z M 478 1434 h 239 v -637 h -239 v 637 z M 478 637 h 239 v -637 h -239 v 637 z M 877 637 h 239 v -637 h -239 v 637 z M 877 797 h 239 v 637 h -239 v -637 z" stroke-linecap="round"/>
</g>
<g transform="matrix(0.0019 0 0 -0.0019 764.5772 531.0429)" id="810834">
<path style="stroke: none; stroke-width: 0; stroke-dasharray: none; stroke-linecap: butt; stroke-dashoffset: 0; stroke-linejoin: miter; stroke-miterlimit: 4; is-custom-font: none; font-file-url: none; fill: rgb(0,0,0); fill-rule: nonzero; opacity: 1;" vector-effect="non-scaling-stroke" transform=" translate(-797, -717)" d="M 80 1195 l 239 239 v -398 h 159 v 159 l 239 239 h 558 l 239 -239 v -956 l -239 -239 v 1195 h -558 v -159 l -239 -239 h -159 l -239 239 v 159 z M 877 1036 h 239 v -797 l -239 -239 h -558 l -239 239 h 797 v 797 z M 80 637 h 239 v -239 h -239 v 239 z M 478 637 h 239 v -239 h -239 v 239 z" stroke-linecap="round"/>
</g>
<g transform="matrix(0.0019 0 0 -0.0019 764.5772 531.0429)" id="280086">
<path style="stroke: none; stroke-width: 0; stroke-dasharray: none; stroke-linecap: butt; stroke-dashoffset: 0; stroke-linejoin: miter; stroke-miterlimit: 4; is-custom-font: none; font-file-url: none; fill: rgb(0,0,0); fill-rule: nonzero; opacity: 1;" vector-effect="non-scaling-stroke" transform=" translate(-797, -717)" d="M 80 1434 h 239 v -239 h -239 v 239 z M 478 1434 h 239 v -239 h -239 v 239 z M 877 1434 h 239 v -239 h -239 v 239 z M 1275 1434 h 239 v -239 h -239 v 239 z M 319 0 l -239 239 v 558 l 239 239 h 956 l 239 -239 v -558 l -239 -239 v 797 h -956 v -797 z M 478 0 v 398 l 239 239 h 160 l 239 -239 v -398 h -239 v 398 h -160 v -398 h -239 z" stroke-linecap="round"/>
</g>
<g transform="matrix(0.0019 0 0 -0.0019 764.5772 531.0429)" id="443136">
<path style="stroke: none; stroke-width: 0; stroke-dasharray: none; stroke-linecap: butt; stroke-dashoffset: 0; stroke-linejoin: miter; stroke-miterlimit: 4; is-custom-font: none; font-file-url: none; fill: rgb(0,0,0); fill-rule: nonzero; opacity: 1;" vector-effect="non-scaling-stroke" transform=" translate(-797, -717)" d="M 80 637 h 239 v -239 h -239 v 239 z M 80 239 h 239 v -239 h -239 v 239 z M 1275 637 h 239 v -239 h -239 v 239 z M 1275 239 h 239 v -239 h -239 v 239 z M 80 797 v 398 l 239 239 h 159 l 239 -239 v -956 h 160 v 956 l 239 239 h 159 l 239 -239 v -398 h -239 v 398 h -159 v -956 l -239 -239 h -160 l -239 239 v 956 h -159 v -398 h -239 z" stroke-linecap="round"/>
</g>
<g transform="matrix(0.0019 0 0 -0.0019 764.5772 531.0429)" id="114024">
<path style="stroke: none; stroke-width: 0; stroke-dasharray: none; stroke-linecap: butt; stroke-dashoffset: 0; stroke-linejoin: miter; stroke-miterlimit: 4; is-custom-font: none; font-file-url: none; fill: rgb(0,0,0); fill-rule: nonzero; opacity: 1;" vector-effect="non-scaling-stroke" transform=" translate(-797, -717)" d="M 80 1195 l 239 239 h 956 l 239 -239 v -956 l -239 -239 v 1195 h -956 v -558 h 159 v 160 l 239 239 h 160 l 239 -239 v -558 l -239 -239 h -558 l -239 239 h 797 v 558 h -160 v -160 l -239 -239 h -159 l -239 239 v 558 z" stroke-linecap="round"/>
</g>
<g transform="matrix(0.0019 0 0 -0.0019 764.5772 531.0429)" id="678366">
<path style="stroke: none; stroke-width: 0; stroke-dasharray: none; stroke-linecap: butt; stroke-dashoffset: 0; stroke-linejoin: miter; stroke-miterlimit: 4; is-custom-font: none; font-file-url: none; fill: rgb(0,0,0); fill-rule: nonzero; opacity: 1;" vector-effect="non-scaling-stroke" transform=" translate(-797, -717)" d="M 80 1195 l 239 239 h 956 l 239 -239 v -956 l -239 -239 v 1195 h -1195 z M 80 1036 h 797 l 239 -239 v -558 l -239 -239 h -558 l -239 239 h 797 v 558 h -797 v 239 z M 80 637 h 637 v -239 h -637 v 239 z" stroke-linecap="round"/>
</g>
<g transform="matrix(0.0019 0 0 -0.0019 764.5772 531.0429)" id="998053">
<path style="stroke: none; stroke-width: 0; stroke-dasharray: none; stroke-linecap: butt; stroke-dashoffset: 0; stroke-linejoin: miter; stroke-miterlimit: 4; is-custom-font: none; font-file-url: none; fill: rgb(0,0,0); fill-rule: nonzero; opacity: 1;" vector-effect="non-scaling-stroke" transform=" translate(-797, -717)" d="M 80 1195 l 239 239 h 956 l 239 -239 v -398 h -239 v 398 h -956 v -398 h -239 v 398 z M 80 637 h 239 v -398 h 159 v 558 l 239 239 h 160 l 239 -239 v -558 h 159 v 398 h 239 v -398 l -239 -239 h -159 l -239 239 v 558 h -160 v -558 l -239 -239 h -159 l -239 239 v 398 z" stroke-linecap="round"/>
</g>
<g transform="matrix(0.0019 0 0 -0.0019 764.5772 531.0429)" id="877015">
<path style="stroke: none; stroke-width: 0; stroke-dasharray: none; stroke-linecap: butt; stroke-dashoffset: 0; stroke-linejoin: miter; stroke-miterlimit: 4; is-custom-font: none; font-file-url: none; fill: rgb(0,0,0); fill-rule: nonzero; opacity: 1;" vector-effect="non-scaling-stroke" transform=" translate(-797, -717)" d="M 80 1434 h 239 v -239 h -239 v 239 z M 1275 1434 h 239 v -239 h -239 v 239 z M 478 1195 l 239 239 h 160 l 239 -239 v -398 h -239 v 398 h -160 v -398 h -239 v 398 z M 80 1036 h 239 v -399 h 159 l 239 -239 v -159 l -239 -239 h -159 l -239 239 h 398 v 159 h -159 l -239 239 v 399 z M 1514 1036 h -239 v -399 h -159 l -239 -239 v -159 l 239 -239 h 159 l 239 239 h -398 v 159 h 159 l 239 239 v 399 z" stroke-linecap="round"/>
</g>
<g transform="matrix(0.0019 0 0 -0.0019 764.5772 531.0429)" id="951544">
<path style="stroke: none; stroke-width: 0; stroke-dasharray: none; stroke-linecap: butt; stroke-dashoffset: 0; stroke-linejoin: miter; stroke-miterlimit: 4; is-custom-font: none; font-file-url: none; fill: rgb(0,0,0); fill-rule: nonzero; opacity: 1;" vector-effect="non-scaling-stroke" transform=" translate(-797, -717)" d="M 80 1434 h 239 v -239 h -239 v 239 z M 1275 1434 h 239 v -239 h -239 v 239 z M 478 1434 h 239 v -398 l -239 -239 h -398 v 239 h 398 v 398 z M 877 1434 h 239 v -398 h 398 v -239 h -398 l -239 239 v 398 z M 319 0 l -239 239 v 159 l 239 239 h 956 l 239 -239 v -159 l -239 -239 v 398 h -956 v -398 z M 478 239 h 638 v -239 h -638 v 239 z" stroke-linecap="round"/>
</g>
<g transform="matrix(0.0019 0 0 -0.0019 764.5772 531.0429)" id="4837">
<path style="stroke: none; stroke-width: 0; stroke-dasharray: none; stroke-linecap: butt; stroke-dashoffset: 0; stroke-linejoin: miter; stroke-miterlimit: 4; is-custom-font: none; font-file-url: none; fill: rgb(0,0,0); fill-rule: nonzero; opacity: 1;" vector-effect="non-scaling-stroke" transform=" translate(-797, -717)" d="M 80 1195 l 239 239 h 159 l 239 -239 v -159 l -239 -239 h -159 v -160 h 159 l 239 -239 v -159 l -239 -239 h -159 l -239 239 h 398 v 159 h -159 l -239 239 v 160 l 239 239 h 159 v 159 h -398 z M 1514 1195 l -239 239 h -159 l -239 -239 v -159 l 239 -239 h 159 v -160 h -159 l -239 -239 v -159 l 239 -239 h 159 l 239 239 h -398 v 159 h 159 l 239 239 v 160 l -239 239 h -159 v 159 h 398 z" stroke-linecap="round"/>
</g>
<g transform="matrix(0.0019 0 0 -0.0019 764.5772 531.0429)" id="649197">
<path style="stroke: none; stroke-width: 0; stroke-dasharray: none; stroke-linecap: butt; stroke-dashoffset: 0; stroke-linejoin: miter; stroke-miterlimit: 4; is-custom-font: none; font-file-url: none; fill: rgb(0,0,0); fill-rule: nonzero; opacity: 1;" vector-effect="non-scaling-stroke" transform=" translate(-797, -717)" d="M 80 1195 l 239 239 v -1195 h 956 v 956 h -558 v -558 h 399 v -239 h -399 l -239 239 v 558 l 239 239 h 558 l 239 -239 v -956 l -239 -239 h -956 l -239 239 v 956 z M 877 1036 h 239 v -239 h -239 v 239 z" stroke-linecap="round"/>
</g>
<g transform="matrix(0.0019 0 0 -0.0019 764.5772 531.0429)" id="470048">
<path style="stroke: none; stroke-width: 0; stroke-dasharray: none; stroke-linecap: butt; stroke-dashoffset: 0; stroke-linejoin: miter; stroke-miterlimit: 4; is-custom-font: none; font-file-url: none; fill: rgb(0,0,0); fill-rule: nonzero; opacity: 1;" vector-effect="non-scaling-stroke" transform=" translate(-797, -717)" d="M 80 239 l 239 -239 v 1036 h -239 v -797 z M 478 1195 v -1195 h 239 v 1195 l -239 239 h -159 l -239 -239 h 398 z M 1275 1434 l 239 -239 v -797 h -239 v 1036 z M 877 1434 h 239 v -1195 h 398 l -239 -239 h -159 l -239 239 v 1195 z" stroke-linecap="round"/>
</g>
<g transform="matrix(0.0019 0 0 -0.0019 796.5604 531.0429)" id="656333">
<path style="stroke: none; stroke-width: 0; stroke-dasharray: none; stroke-linecap: butt; stroke-dashoffset: 0; stroke-linejoin: miter; stroke-miterlimit: 4; is-custom-font: none; font-file-url: none; fill: rgb(0,0,0); fill-rule: nonzero; opacity: 1;" vector-effect="non-scaling-stroke" transform=" translate(-797, -717)" d="M 80 1195 l 239 239 h 956 l 239 -239 v -558 l -239 -239 h -159 l -239 239 v 399 h 239 v -399 h 159 v 558 h -1195 z M 319 239 v 558 h 159 v -399 h 239 v 399 l -239 239 h -159 l -239 -239 v -558 l 239 -239 h 956 l 239 239 h -1195 z" stroke-linecap="round"/>
</g>
<g transform="matrix(0.0019 0 0 -0.0019 764.5772 531.0429)" id="186923">
<path style="stroke: none; stroke-width: 0; stroke-dasharray: none; stroke-linecap: butt; stroke-dashoffset: 0; stroke-linejoin: miter; stroke-miterlimit: 4; is-custom-font: none; font-file-url: none; fill: rgb(0,0,0); fill-rule: nonzero; opacity: 1;" vector-effect="non-scaling-stroke" transform=" translate(-797, -717)" d="M 1514 239 l -239 -239 h -956 l -239 239 h 1434 z M 478 1036 h 239 v -239 h -239 v 239 z M 877 1036 h 239 v -239 h -239 v 239 z M 1275 398 h 239 v 797 l -239 239 v -1036 z M 1116 1434 v -239 h -797 v -558 h 797 v -239 h -797 l -239 239 v 558 l 239 239 h 797 z" stroke-linecap="round"/>
</g>
<g transform="matrix(0.0019 0 0 -0.0019 764.5772 531.0429)" id="956497">
<path style="stroke: none; stroke-width: 0; stroke-dasharray: none; stroke-linecap: butt; stroke-dashoffset: 0; stroke-linejoin: miter; stroke-miterlimit: 4; is-custom-font: none; font-file-url: none; fill: rgb(0,0,0); fill-rule: nonzero; opacity: 1;" vector-effect="non-scaling-stroke" transform=" translate(-797, -717)" d="M 80 1036 h 239 v -638 h -239 v 638 z M 1275 1036 h 239 v -638 h -239 v 638 z M 80 1195 l 239 239 h 159 l 239 -239 v -159 h 160 v 159 l 239 239 h 159 l 239 -239 h -398 v -159 l -239 -239 h -160 l -239 239 v 159 h -398 z M 478 239 v 159 l 239 239 h 160 l 239 -239 v -159 h 398 l -239 -239 h -159 l -239 239 v 159 h -160 v -159 l -239 -239 h -159 l -239 239 h 398 z" stroke-linecap="round"/>
</g>
<g transform="matrix(0.0019 0 0 -0.0019 793.0002 531.0429)" id="429271">
<path style="stroke: none; stroke-width: 0; stroke-dasharray: none; stroke-linecap: butt; stroke-dashoffset: 0; stroke-linejoin: miter; stroke-miterlimit: 4; is-custom-font: none; font-file-url: none; fill: rgb(0,0,0); fill-rule: nonzero; opacity: 1;" vector-effect="non-scaling-stroke" transform=" translate(-797, -717)" d="M 80 1195 l 239 239 h 956 l 239 -239 v -159 l -239 -239 h -558 v -797 h -239 v 797 l 239 239 h 558 v 159 h -956 v -1195 l -239 239 v 956 z M 877 637 h 239 v -637 h -239 v 637 z M 1275 637 h 239 v -398 l -239 -239 v 637 z" stroke-linecap="round"/>
</g>
<g transform="matrix(0.0019 0 0 -0.0019 789.9361 531.0429)" id="855990">
<path style="stroke: none; stroke-width: 0; stroke-dasharray: none; stroke-linecap: butt; stroke-dashoffset: 0; stroke-linejoin: miter; stroke-miterlimit: 4; is-custom-font: none; font-file-url: none; fill: rgb(0,0,0); fill-rule: nonzero; opacity: 1;" vector-effect="non-scaling-stroke" transform=" translate(-797, -717)" d="M 478 1195 v -558 l 239 -239 h 160 l 239 239 v 558 h 398 l -239 239 h -159 l -239 -239 v -558 h -160 v 558 l -239 239 h -159 l -239 -239 h 398 z M 80 1036 h 239 v -797 h 956 v 797 h 239 v -797 l -239 -239 h -956 l -239 239 v 797 z" stroke-linecap="round"/>
</g>
<g transform="matrix(0.0019 0 0 -0.0019 767.5829 531.0429)" id="825609">
<path style="stroke: none; stroke-width: 0; stroke-dasharray: none; stroke-linecap: butt; stroke-dashoffset: 0; stroke-linejoin: miter; stroke-miterlimit: 4; is-custom-font: none; font-file-url: none; fill: rgb(0,0,0); fill-rule: nonzero; opacity: 1;" vector-effect="non-scaling-stroke" transform=" translate(-797, -717)" d="M 478 1036 h 638 v -239 h -638 v 239 z M 478 637 h 638 v -239 h -638 v 239 z M 717 1434 v -239 h -398 v -956 h 398 v -239 h -398 l -239 239 v 956 l 239 239 h 398 z M 877 1434 v -239 h 398 v -956 h -398 v -239 h 398 l 239 239 v 956 l -239 239 h -398 z" stroke-linecap="round"/>
</g>
<g transform="matrix(0.0019 0 0 -0.0019 783.0492 531.0429)" id="733727">
<path style="stroke: none; stroke-width: 0; stroke-dasharray: none; stroke-linecap: butt; stroke-dashoffset: 0; stroke-linejoin: miter; stroke-miterlimit: 4; is-custom-font: none; font-file-url: none; fill: rgb(0,0,0); fill-rule: nonzero; opacity: 1;" vector-effect="non-scaling-stroke" transform=" translate(-797, -717)" d="M 478 1434 h 638 v -239 h -638 v 239 z M 1514 239 l -239 -239 h -956 l -239 239 h 1434 z M 80 1195 l 239 239 v -797 h 159 v 160 l 239 239 h 160 l 239 -239 v -160 h 159 v 797 l 239 -239 v -558 l -239 -239 h -159 l -239 239 v 160 h -160 v -160 l -239 -239 h -159 l -239 239 v 558 z" stroke-linecap="round"/>
</g>
<g transform="matrix(0.0019 0 0 -0.0019 786.4927 531.0429)" id="88459">
<path style="stroke: none; stroke-width: 0; stroke-dasharray: none; stroke-linecap: butt; stroke-dashoffset: 0; stroke-linejoin: miter; stroke-miterlimit: 4; is-custom-font: none; font-file-url: none; fill: rgb(0,0,0); fill-rule: nonzero; opacity: 1;" vector-effect="non-scaling-stroke" transform=" translate(-797, -717)" d="M 80 239 h 239 v -239 h -239 v 239 z M 1275 239 h 239 v -239 h -239 v 239 z M 80 797 v 398 l 239 239 h 159 l 239 -239 v -159 h 160 v 159 l 239 239 h 159 l 239 -239 v -398 h -239 v 398 h -159 v -159 l -239 -239 h -160 l -239 239 v 159 h -159 v -398 h -239 z M 80 637 h 398 l 239 -239 v -159 h 160 v 159 l 239 239 h 398 v -239 h -398 v -159 l -239 -239 h -160 l -239 239 v 159 h -398 v 239 z" stroke-linecap="round"/>
</g>
<g transform="matrix(0.0019 0 0 -0.0019 778.3802 531.0429)" id="9838">
<path style="stroke: none; stroke-width: 0; stroke-dasharray: none; stroke-linecap: butt; stroke-dashoffset: 0; stroke-linejoin: miter; stroke-miterlimit: 4; is-custom-font: none; font-file-url: none; fill: rgb(0,0,0); fill-rule: nonzero; opacity: 1;" vector-effect="non-scaling-stroke" transform=" translate(-797, -717)" d="M 80 1434 h 239 v -239 h -239 v 239 z M 478 1434 h 239 v -239 h -239 v 239 z M 478 637 h 239 v -637 h -239 v 637 z M 877 637 h 239 v -637 h -239 v 637 z M 319 0 l -239 239 v 558 l 239 239 h 558 v 398 h 239 v -398 l -239 -239 h -558 v -797 z M 1275 1434 l 239 -239 v -956 l -239 -239 v 1434 z" stroke-linecap="round"/>
</g>
<g transform="matrix(0.0019 0 0 -0.0019 770.5303 531.0429)" id="429381">
<path style="stroke: none; stroke-width: 0; stroke-dasharray: none; stroke-linecap: butt; stroke-dashoffset: 0; stroke-linejoin: miter; stroke-miterlimit: 4; is-custom-font: none; font-file-url: none; fill: rgb(0,0,0); fill-rule: nonzero; opacity: 1;" vector-effect="non-scaling-stroke" transform=" translate(-797, -717)" d="M 478 1434 h 638 v -239 h -638 v 239 z M 478 1036 h 638 v -239 h -638 v 239 z M 478 637 h 638 v -239 h -638 v 239 z M 319 239 h 956 v 1195 l 239 -239 v -956 l -239 -239 h -956 l -239 239 v 956 l 239 239 v -1195 z" stroke-linecap="round"/>
</g>
<g transform="matrix(0.0019 0 0 -0.0019 774.499 531.0429)" id="706333">
<path style="stroke: none; stroke-width: 0; stroke-dasharray: none; stroke-linecap: butt; stroke-dashoffset: 0; stroke-linejoin: miter; stroke-miterlimit: 4; is-custom-font: none; font-file-url: none; fill: rgb(0,0,0); fill-rule: nonzero; opacity: 1;" vector-effect="non-scaling-stroke" transform=" translate(-797, -717)" d="M 478 1434 h 239 v -239 h -239 v 239 z M 877 1434 h 239 v -239 h -239 v 239 z M 80 637 h 239 v -637 l -239 239 v 398 z M 1275 637 h 239 v -398 l -239 -239 v 637 z M 319 1036 h 159 l 239 -239 v -558 h 160 v 558 l 239 239 h 159 v 398 l 239 -239 v -159 l -239 -239 h -159 v -558 l -239 -239 h -160 l -239 239 v 558 h -159 l -239 239 v 159 l 239 239 v -398 z" stroke-linecap="round"/>
</g>
<g transform="matrix(0.4881 0 0 -0.4881 11987.5041 531.0429)" id="809559">
<path style="stroke: none; stroke-width: 1; stroke-dasharray: none; stroke-linecap: butt; stroke-dashoffset: 0; stroke-linejoin: miter; stroke-miterlimit: 4; is-custom-font: none; font-file-url: none; fill: rgb(0,0,0); fill-rule: nonzero; opacity: 1;" vector-effect="non-scaling-stroke" transform=" translate(-797, -717)" d="M 80 1195 l 239 239 h 159 l 239 -239 v -159 l -239 -239 h -398 v 239 h 398 v 159 h -398 z M 877 1434 v -797 h -558 l -239 -239 v -159 l 239 -239 h 956 l 239 239 v 956 l -239 239 v -1195 h -956 v 159 h 558 l 239 239 v 797 h -239 z" stroke-linecap="round"/>
</g>
<g transform="matrix(0.4881 0 0 -0.4881 21811.0088 531.0429)" id="242687">
<path style="stroke: none; stroke-width: 1; stroke-dasharray: none; stroke-linecap: butt; stroke-dashoffset: 0; stroke-linejoin: miter; stroke-miterlimit: 4; is-custom-font: none; font-file-url: none; fill: rgb(0,0,0); fill-rule: nonzero; opacity: 1;" vector-effect="non-scaling-stroke" transform=" translate(-797, -717)" d="M 80 1195 l 239 239 h 956 l 239 -239 h -1434 z M 1514 239 l -239 -239 h -956 l -239 239 h 1434 z M 80 398 h 239 v 239 h -239 v -239 z M 478 398 h 239 v 399 l -239 239 h -398 v -239 h 398 v -399 z M 877 398 v 399 l 239 239 h 398 v -239 h -398 v -399 h -239 z M 1275 637 h 239 v -239 h -239 v 239 z" stroke-linecap="round"/>
</g>
<g transform="matrix(0.4881 0 0 -0.4881 20997.4223 531.0429)" id="623274">
<path style="stroke: none; stroke-width: 1; stroke-dasharray: none; stroke-linecap: butt; stroke-dashoffset: 0; stroke-linejoin: miter; stroke-miterlimit: 4; is-custom-font: none; font-file-url: none; fill: rgb(0,0,0); fill-rule: nonzero; opacity: 1;" vector-effect="non-scaling-stroke" transform=" translate(-797, -717)" d="M 80 1195 l 239 239 v -797 h 159 v 558 l 239 239 h 558 l 239 -239 h -797 v -558 l -239 -239 h -159 l -239 239 v 558 z M 877 1036 h 637 v -239 h -637 v 239 z M 877 637 h 637 v -239 h -637 v 239 z M 80 239 l 239 -239 h 956 l 239 239 h -1434 z" stroke-linecap="round"/>
</g>
<g transform="matrix(0.4881 0 0 -0.4881 20173.3569 531.0429)" id="408575">
<path style="stroke: none; stroke-width: 1; stroke-dasharray: none; stroke-linecap: butt; stroke-dashoffset: 0; stroke-linejoin: miter; stroke-miterlimit: 4; is-custom-font: none; font-file-url: none; fill: rgb(0,0,0); fill-rule: nonzero; opacity: 1;" vector-effect="non-scaling-stroke" transform=" translate(-797, -717)" d="M 319 0 l -239 239 v 956 l 239 239 v -1434 z M 1275 1434 l 239 -239 v -956 l -239 -239 v 1434 z M 478 1434 h 239 v -637 h -239 v 637 z M 478 637 h 239 v -637 h -239 v 637 z M 877 637 h 239 v -637 h -239 v 637 z M 877 797 h 239 v 637 h -239 v -637 z" stroke-linecap="round"/>
</g>
<g transform="matrix(0.4881 0 0 -0.4881 19342.4457 531.0429)" id="19449">
<path style="stroke: none; stroke-width: 1; stroke-dasharray: none; stroke-linecap: butt; stroke-dashoffset: 0; stroke-linejoin: miter; stroke-miterlimit: 4; is-custom-font: none; font-file-url: none; fill: rgb(0,0,0); fill-rule: nonzero; opacity: 1;" vector-effect="non-scaling-stroke" transform=" translate(-797, -717)" d="M 80 1195 l 239 239 v -398 h 159 v 159 l 239 239 h 558 l 239 -239 v -956 l -239 -239 v 1195 h -558 v -159 l -239 -239 h -159 l -239 239 v 159 z M 877 1036 h 239 v -797 l -239 -239 h -558 l -239 239 h 797 v 797 z M 80 637 h 239 v -239 h -239 v 239 z M 478 637 h 239 v -239 h -239 v 239 z" stroke-linecap="round"/>
</g>
<g transform="matrix(0.4881 0 0 -0.4881 18531.9083 531.0429)" id="455338">
<path style="stroke: none; stroke-width: 1; stroke-dasharray: none; stroke-linecap: butt; stroke-dashoffset: 0; stroke-linejoin: miter; stroke-miterlimit: 4; is-custom-font: none; font-file-url: none; fill: rgb(0,0,0); fill-rule: nonzero; opacity: 1;" vector-effect="non-scaling-stroke" transform=" translate(-797, -717)" d="M 80 1434 h 239 v -239 h -239 v 239 z M 478 1434 h 239 v -239 h -239 v 239 z M 877 1434 h 239 v -239 h -239 v 239 z M 1275 1434 h 239 v -239 h -239 v 239 z M 319 0 l -239 239 v 558 l 239 239 h 956 l 239 -239 v -558 l -239 -239 v 797 h -956 v -797 z M 478 0 v 398 l 239 239 h 160 l 239 -239 v -398 h -239 v 398 h -160 v -398 h -239 z" stroke-linecap="round"/>
</g>
<g transform="matrix(0.4881 0 0 -0.4881 17712.7611 531.0429)" id="190705">
<path style="stroke: none; stroke-width: 1; stroke-dasharray: none; stroke-linecap: butt; stroke-dashoffset: 0; stroke-linejoin: miter; stroke-miterlimit: 4; is-custom-font: none; font-file-url: none; fill: rgb(0,0,0); fill-rule: nonzero; opacity: 1;" vector-effect="non-scaling-stroke" transform=" translate(-797, -717)" d="M 80 637 h 239 v -239 h -239 v 239 z M 80 239 h 239 v -239 h -239 v 239 z M 1275 637 h 239 v -239 h -239 v 239 z M 1275 239 h 239 v -239 h -239 v 239 z M 80 797 v 398 l 239 239 h 159 l 239 -239 v -956 h 160 v 956 l 239 239 h 159 l 239 -239 v -398 h -239 v 398 h -159 v -956 l -239 -239 h -160 l -239 239 v 956 h -159 v -398 h -239 z" stroke-linecap="round"/>
</g>
<g transform="matrix(0.4881 0 0 -0.4881 16881.2074 531.0429)" id="852664">
<path style="stroke: none; stroke-width: 1; stroke-dasharray: none; stroke-linecap: butt; stroke-dashoffset: 0; stroke-linejoin: miter; stroke-miterlimit: 4; is-custom-font: none; font-file-url: none; fill: rgb(0,0,0); fill-rule: nonzero; opacity: 1;" vector-effect="non-scaling-stroke" transform=" translate(-797, -717)" d="M 80 1195 l 239 239 h 956 l 239 -239 v -956 l -239 -239 v 1195 h -956 v -558 h 159 v 160 l 239 239 h 160 l 239 -239 v -558 l -239 -239 h -558 l -239 239 h 797 v 558 h -160 v -160 l -239 -239 h -159 l -239 239 v 558 z" stroke-linecap="round"/>
</g>
<g transform="matrix(0.4881 0 0 -0.4881 16055.4831 531.0429)" id="356745">
<path style="stroke: none; stroke-width: 1; stroke-dasharray: none; stroke-linecap: butt; stroke-dashoffset: 0; stroke-linejoin: miter; stroke-miterlimit: 4; is-custom-font: none; font-file-url: none; fill: rgb(0,0,0); fill-rule: nonzero; opacity: 1;" vector-effect="non-scaling-stroke" transform=" translate(-797, -717)" d="M 80 1195 l 239 239 h 956 l 239 -239 v -956 l -239 -239 v 1195 h -1195 z M 80 1036 h 797 l 239 -239 v -558 l -239 -239 h -558 l -239 239 h 797 v 558 h -797 v 239 z M 80 637 h 637 v -239 h -637 v 239 z" stroke-linecap="round"/>
</g>
<g transform="matrix(0.4881 0 0 -0.4881 15239.0111 531.0429)" id="695387">
<path style="stroke: none; stroke-width: 1; stroke-dasharray: none; stroke-linecap: butt; stroke-dashoffset: 0; stroke-linejoin: miter; stroke-miterlimit: 4; is-custom-font: none; font-file-url: none; fill: rgb(0,0,0); fill-rule: nonzero; opacity: 1;" vector-effect="non-scaling-stroke" transform=" translate(-797, -717)" d="M 80 1195 l 239 239 h 956 l 239 -239 v -398 h -239 v 398 h -956 v -398 h -239 v 398 z M 80 637 h 239 v -398 h 159 v 558 l 239 239 h 160 l 239 -239 v -558 h 159 v 398 h 239 v -398 l -239 -239 h -159 l -239 239 v 558 h -160 v -558 l -239 -239 h -159 l -239 239 v 398 z" stroke-linecap="round"/>
</g>
<g transform="matrix(0.4881 0 0 -0.4881 14429.8639 531.0429)" id="192434">
<path style="stroke: none; stroke-width: 1; stroke-dasharray: none; stroke-linecap: butt; stroke-dashoffset: 0; stroke-linejoin: miter; stroke-miterlimit: 4; is-custom-font: none; font-file-url: none; fill: rgb(0,0,0); fill-rule: nonzero; opacity: 1;" vector-effect="non-scaling-stroke" transform=" translate(-797, -717)" d="M 80 1434 h 239 v -239 h -239 v 239 z M 1275 1434 h 239 v -239 h -239 v 239 z M 478 1195 l 239 239 h 160 l 239 -239 v -398 h -239 v 398 h -160 v -398 h -239 v 398 z M 80 1036 h 239 v -399 h 159 l 239 -239 v -159 l -239 -239 h -159 l -239 239 h 398 v 159 h -159 l -239 239 v 399 z M 1514 1036 h -239 v -399 h -159 l -239 -239 v -159 l 239 -239 h 159 l 239 239 h -398 v 159 h 159 l 239 239 v 399 z" stroke-linecap="round"/>
</g>
<g transform="matrix(0.4881 0 0 -0.4881 13613.1233 531.0429)" id="199016">
<path style="stroke: none; stroke-width: 1; stroke-dasharray: none; stroke-linecap: butt; stroke-dashoffset: 0; stroke-linejoin: miter; stroke-miterlimit: 4; is-custom-font: none; font-file-url: none; fill: rgb(0,0,0); fill-rule: nonzero; opacity: 1;" vector-effect="non-scaling-stroke" transform=" translate(-797, -717)" d="M 80 1434 h 239 v -239 h -239 v 239 z M 1275 1434 h 239 v -239 h -239 v 239 z M 478 1434 h 239 v -398 l -239 -239 h -398 v 239 h 398 v 398 z M 877 1434 h 239 v -398 h 398 v -239 h -398 l -239 239 v 398 z M 319 0 l -239 239 v 159 l 239 239 h 956 l 239 -239 v -159 l -239 -239 v 398 h -956 v -398 z M 478 239 h 638 v -239 h -638 v 239 z" stroke-linecap="round"/>
</g>
<g transform="matrix(0.4881 0 0 -0.4881 12817.7728 531.0429)" id="918021">
<path style="stroke: none; stroke-width: 1; stroke-dasharray: none; stroke-linecap: butt; stroke-dashoffset: 0; stroke-linejoin: miter; stroke-miterlimit: 4; is-custom-font: none; font-file-url: none; fill: rgb(0,0,0); fill-rule: nonzero; opacity: 1;" vector-effect="non-scaling-stroke" transform=" translate(-797, -717)" d="M 80 1195 l 239 239 h 159 l 239 -239 v -159 l -239 -239 h -159 v -160 h 159 l 239 -239 v -159 l -239 -239 h -159 l -239 239 h 398 v 159 h -159 l -239 239 v 160 l 239 239 h 159 v 159 h -398 z M 1514 1195 l -239 239 h -159 l -239 -239 v -159 l 239 -239 h 159 v -160 h -159 l -239 -239 v -159 l 239 -239 h 159 l 239 239 h -398 v 159 h 159 l 239 239 v 160 l -239 239 h -159 v 159 h 398 z" stroke-linecap="round"/>
</g>
<g transform="matrix(0.4881 0 0 -0.4881 11166.3826 531.0429)" id="729591">
<path style="stroke: none; stroke-width: 1; stroke-dasharray: none; stroke-linecap: butt; stroke-dashoffset: 0; stroke-linejoin: miter; stroke-miterlimit: 4; is-custom-font: none; font-file-url: none; fill: rgb(0,0,0); fill-rule: nonzero; opacity: 1;" vector-effect="non-scaling-stroke" transform=" translate(-797, -717)" d="M 80 1195 l 239 239 v -1195 h 956 v 956 h -558 v -558 h 399 v -239 h -399 l -239 239 v 558 l 239 239 h 558 l 239 -239 v -956 l -239 -239 h -956 l -239 239 v 956 z M 877 1036 h 239 v -239 h -239 v 239 z" stroke-linecap="round"/>
</g>
<g transform="matrix(0.4881 0 0 -0.4881 10308.7892 531.0429)" id="943286">
<path style="stroke: none; stroke-width: 1; stroke-dasharray: none; stroke-linecap: butt; stroke-dashoffset: 0; stroke-linejoin: miter; stroke-miterlimit: 4; is-custom-font: none; font-file-url: none; fill: rgb(0,0,0); fill-rule: nonzero; opacity: 1;" vector-effect="non-scaling-stroke" transform=" translate(-797, -717)" d="M 80 239 l 239 -239 v 1036 h -239 v -797 z M 478 1195 v -1195 h 239 v 1195 l -239 239 h -159 l -239 -239 h 398 z M 1275 1434 l 239 -239 v -797 h -239 v 1036 z M 877 1434 h 239 v -1195 h 398 l -239 -239 h -159 l -239 239 v 1195 z" stroke-linecap="round"/>
</g>
<g transform="matrix(0.4881 0 0 -0.4881 9463.8125 531.0429)" id="870421">
<path style="stroke: none; stroke-width: 1; stroke-dasharray: none; stroke-linecap: butt; stroke-dashoffset: 0; stroke-linejoin: miter; stroke-miterlimit: 4; is-custom-font: none; font-file-url: none; fill: rgb(0,0,0); fill-rule: nonzero; opacity: 1;" vector-effect="non-scaling-stroke" transform=" translate(-797, -717)" d="M 80 1195 l 239 239 h 956 l 239 -239 v -558 l -239 -239 h -159 l -239 239 v 399 h 239 v -399 h 159 v 558 h -1195 z M 319 239 v 558 h 159 v -399 h 239 v 399 l -239 239 h -159 l -239 -239 v -558 l 239 -239 h 956 l 239 239 h -1195 z" stroke-linecap="round"/>
</g>
<g transform="matrix(0.4881 0 0 -0.4881 8643.1116 531.0429)" id="741965">
<path style="stroke: none; stroke-width: 1; stroke-dasharray: none; stroke-linecap: butt; stroke-dashoffset: 0; stroke-linejoin: miter; stroke-miterlimit: 4; is-custom-font: none; font-file-url: none; fill: rgb(0,0,0); fill-rule: nonzero; opacity: 1;" vector-effect="non-scaling-stroke" transform=" translate(-797, -717)" d="M 1514 239 l -239 -239 h -956 l -239 239 h 1434 z M 478 1036 h 239 v -239 h -239 v 239 z M 877 1036 h 239 v -239 h -239 v 239 z M 1275 398 h 239 v 797 l -239 239 v -1036 z M 1116 1434 v -239 h -797 v -558 h 797 v -239 h -797 l -239 239 v 558 l 239 239 h 797 z" stroke-linecap="round"/>
</g>
<g transform="matrix(0.4881 0 0 -0.4881 7804.6069 531.0429)" id="993965">
<path style="stroke: none; stroke-width: 1; stroke-dasharray: none; stroke-linecap: butt; stroke-dashoffset: 0; stroke-linejoin: miter; stroke-miterlimit: 4; is-custom-font: none; font-file-url: none; fill: rgb(0,0,0); fill-rule: nonzero; opacity: 1;" vector-effect="non-scaling-stroke" transform=" translate(-797, -717)" d="M 80 1036 h 239 v -638 h -239 v 638 z M 1275 1036 h 239 v -638 h -239 v 638 z M 80 1195 l 239 239 h 159 l 239 -239 v -159 h 160 v 159 l 239 239 h 159 l 239 -239 h -398 v -159 l -239 -239 h -160 l -239 239 v 159 h -398 z M 478 239 v 159 l 239 239 h 160 l 239 -239 v -159 h 398 l -239 -239 h -159 l -239 239 v 159 h -160 v -159 l -239 -239 h -159 l -239 239 h 398 z" stroke-linecap="round"/>
</g>
<g transform="matrix(0.4881 0 0 -0.4881 6973.9644 531.0429)" id="34222">
<path style="stroke: none; stroke-width: 1; stroke-dasharray: none; stroke-linecap: butt; stroke-dashoffset: 0; stroke-linejoin: miter; stroke-miterlimit: 4; is-custom-font: none; font-file-url: none; fill: rgb(0,0,0); fill-rule: nonzero; opacity: 1;" vector-effect="non-scaling-stroke" transform=" translate(-797, -717)" d="M 80 1195 l 239 239 h 956 l 239 -239 v -159 l -239 -239 h -558 v -797 h -239 v 797 l 239 239 h 558 v 159 h -956 v -1195 l -239 239 v 956 z M 877 637 h 239 v -637 h -239 v 637 z M 1275 637 h 239 v -398 l -239 -239 v 637 z" stroke-linecap="round"/>
</g>
<g transform="matrix(0.4881 0 0 -0.4881 6122.7845 531.0429)" id="230613">
<path style="stroke: none; stroke-width: 1; stroke-dasharray: none; stroke-linecap: butt; stroke-dashoffset: 0; stroke-linejoin: miter; stroke-miterlimit: 4; is-custom-font: none; font-file-url: none; fill: rgb(0,0,0); fill-rule: nonzero; opacity: 1;" vector-effect="non-scaling-stroke" transform=" translate(-797, -717)" d="M 478 1195 v -558 l 239 -239 h 160 l 239 239 v 558 h 398 l -239 239 h -159 l -239 -239 v -558 h -160 v 558 l -239 239 h -159 l -239 -239 h 398 z M 80 1036 h 239 v -797 h 956 v 797 h 239 v -797 l -239 -239 h -956 l -239 239 v 797 z" stroke-linecap="round"/>
</g>
<g transform="matrix(0.4881 0 0 -0.4881 5271.4995 531.0429)" id="675862">
<path style="stroke: none; stroke-width: 1; stroke-dasharray: none; stroke-linecap: butt; stroke-dashoffset: 0; stroke-linejoin: miter; stroke-miterlimit: 4; is-custom-font: none; font-file-url: none; fill: rgb(0,0,0); fill-rule: nonzero; opacity: 1;" vector-effect="non-scaling-stroke" transform=" translate(-797, -717)" d="M 478 1036 h 638 v -239 h -638 v 239 z M 478 637 h 638 v -239 h -638 v 239 z M 717 1434 v -239 h -398 v -956 h 398 v -239 h -398 l -239 239 v 956 l 239 239 h 398 z M 877 1434 v -239 h 398 v -956 h -398 v -239 h 398 l 239 239 v 956 l -239 239 h -398 z" stroke-linecap="round"/>
</g>
<g transform="matrix(0.4881 0 0 -0.4881 4438.2868 531.0429)" id="71813">
<path style="stroke: none; stroke-width: 1; stroke-dasharray: none; stroke-linecap: butt; stroke-dashoffset: 0; stroke-linejoin: miter; stroke-miterlimit: 4; is-custom-font: none; font-file-url: none; fill: rgb(0,0,0); fill-rule: nonzero; opacity: 1;" vector-effect="non-scaling-stroke" transform=" translate(-797, -717)" d="M 478 1434 h 638 v -239 h -638 v 239 z M 1514 239 l -239 -239 h -956 l -239 239 h 1434 z M 80 1195 l 239 239 v -797 h 159 v 160 l 239 239 h 160 l 239 -239 v -160 h 159 v 797 l 239 -239 v -558 l -239 -239 h -159 l -239 239 v 160 h -160 v -160 l -239 -239 h -159 l -239 239 v 558 z" stroke-linecap="round"/>
</g>
<g transform="matrix(0.4881 0 0 -0.4881 3593.9527 531.0429)" id="334477">
<path style="stroke: none; stroke-width: 1; stroke-dasharray: none; stroke-linecap: butt; stroke-dashoffset: 0; stroke-linejoin: miter; stroke-miterlimit: 4; is-custom-font: none; font-file-url: none; fill: rgb(0,0,0); fill-rule: nonzero; opacity: 1;" vector-effect="non-scaling-stroke" transform=" translate(-797, -717)" d="M 80 239 h 239 v -239 h -239 v 239 z M 1275 239 h 239 v -239 h -239 v 239 z M 80 797 v 398 l 239 239 h 159 l 239 -239 v -159 h 160 v 159 l 239 239 h 159 l 239 -239 v -398 h -239 v 398 h -159 v -159 l -239 -239 h -160 l -239 239 v 159 h -159 v -398 h -239 z M 80 637 h 398 l 239 -239 v -159 h 160 v 159 l 239 239 h 398 v -239 h -398 v -159 l -239 -239 h -160 l -239 239 v 159 h -398 v 239 z" stroke-linecap="round"/>
</g>
<g transform="matrix(0.4881 0 0 -0.4881 2758.2284 531.0429)" id="241197">
<path style="stroke: none; stroke-width: 1; stroke-dasharray: none; stroke-linecap: butt; stroke-dashoffset: 0; stroke-linejoin: miter; stroke-miterlimit: 4; is-custom-font: none; font-file-url: none; fill: rgb(0,0,0); fill-rule: nonzero; opacity: 1;" vector-effect="non-scaling-stroke" transform=" translate(-797, -717)" d="M 80 1434 h 239 v -239 h -239 v 239 z M 478 1434 h 239 v -239 h -239 v 239 z M 478 637 h 239 v -637 h -239 v 637 z M 877 637 h 239 v -637 h -239 v 637 z M 319 0 l -239 239 v 558 l 239 239 h 558 v 398 h 239 v -398 l -239 -239 h -558 v -797 z M 1275 1434 l 239 -239 v -956 l -239 -239 v 1434 z" stroke-linecap="round"/>
</g>
<g transform="matrix(0.4881 0 0 -0.4881 1929.7238 531.0429)" id="200771">
<path style="stroke: none; stroke-width: 1; stroke-dasharray: none; stroke-linecap: butt; stroke-dashoffset: 0; stroke-linejoin: miter; stroke-miterlimit: 4; is-custom-font: none; font-file-url: none; fill: rgb(0,0,0); fill-rule: nonzero; opacity: 1;" vector-effect="non-scaling-stroke" transform=" translate(-797, -717)" d="M 478 1434 h 638 v -239 h -638 v 239 z M 478 1036 h 638 v -239 h -638 v 239 z M 478 637 h 638 v -239 h -638 v 239 z M 319 239 h 956 v 1195 l 239 -239 v -956 l -239 -239 h -956 l -239 239 v 956 l 239 239 v -1195 z" stroke-linecap="round"/>
</g>
<g transform="matrix(0.4881 0 0 -0.4881 1120.4714 531.0429)" id="946888">
<path style="stroke: none; stroke-width: 1; stroke-dasharray: none; stroke-linecap: butt; stroke-dashoffset: 0; stroke-linejoin: miter; stroke-miterlimit: 4; is-custom-font: none; font-file-url: none; fill: rgb(0,0,0); fill-rule: nonzero; opacity: 1;" vector-effect="non-scaling-stroke" transform=" translate(-797, -717)" d="M 478 1434 h 239 v -239 h -239 v 239 z M 877 1434 h 239 v -239 h -239 v 239 z M 80 637 h 239 v -637 l -239 239 v 398 z M 1275 637 h 239 v -398 l -239 -239 v 637 z M 319 1036 h 159 l 239 -239 v -558 h 160 v 558 l 239 239 h 159 v 398 l 239 -239 v -159 l -239 -239 h -159 v -558 l -239 -239 h -160 l -239 239 v 558 h -159 l -239 239 v 159 l 239 239 v -398 z" stroke-linecap="round"/>
</g>
</svg>